<svg width="59" height="57" viewBox="0 0 59 57" fill="none" xmlns="http://www.w3.org/2000/svg">
<path fill-rule="evenodd" clip-rule="evenodd" d="M22.31 35.7078C31.8154 35.7078 44.4533 36.7783 44.4533 46.0387C44.4533 55.7935 29.7274 56.3788 23.4108 56.4139L21.1174 56.4139C14.3823 56.379 0.166656 55.797 0.166656 46.097C0.166656 36.3312 14.8926 35.7452 21.2092 35.7101L21.9681 35.7079C22.0864 35.7078 22.2004 35.7078 22.31 35.7078ZM22.31 40.0828C14.2046 40.0828 4.54166 41.1241 4.54166 46.097C4.54166 50.0403 10.5208 52.0412 22.31 52.0412C34.0992 52.0412 40.0783 50.0199 40.0783 46.0387C40.0783 42.0866 34.0992 40.0828 22.31 40.0828ZM48.8945 34.3455C56.787 35.5267 58.4408 39.1813 58.4408 42.0367C58.4408 44.163 57.522 47.0417 53.1383 48.7013C52.8845 48.7975 52.622 48.8442 52.3624 48.8442C51.4787 48.8442 50.6474 48.3046 50.3179 47.4325C49.8891 46.3038 50.4579 45.038 51.5866 44.6121C54.0658 43.673 54.0658 42.5267 54.0658 42.0367C54.0658 40.383 52.1087 39.2513 48.2499 38.6767C47.0541 38.4959 46.2287 37.3817 46.4066 36.1888C46.5874 34.993 47.722 34.1909 48.8945 34.3455ZM22.31 0.833252C30.5671 0.833252 37.2872 7.55325 37.2872 15.8103C37.3046 19.7887 35.7617 23.5453 32.95 26.3745C30.1442 29.2066 26.3962 30.7728 22.4092 30.7874H22.31C14.05 30.7874 7.32999 24.0674 7.32999 15.8103C7.32999 7.55325 14.05 0.833252 22.31 0.833252ZM42.9822 4.111C48.7134 5.05017 52.8726 9.95309 52.8726 15.766C52.8609 21.6139 48.4947 26.6364 42.7138 27.4473C42.6117 27.4618 42.5097 27.4677 42.4076 27.4677C41.3342 27.4677 40.398 26.6773 40.2434 25.5835C40.0772 24.3877 40.9084 23.2793 42.1042 23.1131C45.7442 22.6027 48.4917 19.4439 48.4976 15.7631C48.4976 12.1056 45.8784 9.01975 42.2763 8.43059C41.0834 8.23225 40.2755 7.10934 40.4709 5.91642C40.6663 4.7235 41.7951 3.92142 42.9822 4.111ZM22.31 5.20825C16.4621 5.20825 11.705 9.96534 11.705 15.8103C11.705 21.6553 16.4621 26.4124 22.31 26.4124H22.4004C25.2121 26.4008 27.8604 25.2953 29.8467 23.2916C31.8358 21.2937 32.9237 18.6366 32.9122 15.8191C32.9122 9.96534 28.155 5.20825 22.31 5.20825Z" fill="#FD6F00"/>
</svg>
